<?xml version="1.0" standalone="no"?>
<!DOCTYPE svg PUBLIC "-//W3C//DTD SVG 20010904//EN"
 "http://www.w3.org/TR/2001/REC-SVG-20010904/DTD/svg10.dtd">
<svg version="1.0" xmlns="http://www.w3.org/2000/svg"
 width="512.000000pt" height="512.000000pt" viewBox="0 0 512.000000 512.000000"
 preserveAspectRatio="xMidYMid meet">
<metadata>
Created by potrace 1.11, written by Peter Selinger 2001-2013
</metadata>
<g transform="translate(0.000000,512.000000) scale(0.100000,-0.100000)"
fill="#000000" stroke="none">
<path d="M242 5081 c-61 -21 -114 -61 -159 -120 -64 -83 -63 -70 -63 -863 l0
-718 2535 0 2535 0 -2 738 -3 737 -28 56 c-32 66 -99 132 -165 162 l-47 22
-2275 2 c-2183 2 -2277 2 -2328 -16z m4283 -537 c62 -29 66 -54 63 -323 -3
-238 -3 -240 -27 -265 -14 -15 -41 -31 -60 -37 -24 -7 -403 -9 -1143 -7
l-1108 3 -32 33 -33 32 -3 239 c-3 272 2 301 60 326 28 12 204 14 1141 15 990
0 1113 -2 1142 -16z"/>
<path d="M22 1748 l3 -1473 28 -56 c32 -66 99 -132 165 -162 l47 -22 2290 0
2290 0 47 22 c66 30 133 96 165 162 l28 56 3 1473 2 1472 -250 0 -250 0 0
-1590 0 -1590 -480 0 -480 0 0 995 0 995 40 0 40 0 0 595 0 596 -132 -3 -133
-3 -3 -592 -2 -593 50 0 50 0 0 -995 0 -995 -475 0 -475 0 0 995 0 995 55 0
55 0 -2 593 -3 592 -135 0 -135 0 -3 -592 -2 -593 40 0 40 0 0 -995 0 -995
-475 0 -475 0 0 995 0 995 50 0 50 0 -2 593 -3 592 -132 3 -133 3 0 -596 0
-595 40 0 40 0 0 -995 0 -995 -480 0 -480 0 0 1590 0 1590 -240 0 -240 0 2
-1472z"/>
</g>
</svg>
