<?xml version="1.0" standalone="no"?>
<!DOCTYPE svg PUBLIC "-//W3C//DTD SVG 20010904//EN"
 "http://www.w3.org/TR/2001/REC-SVG-20010904/DTD/svg10.dtd">
<svg version="1.0" xmlns="http://www.w3.org/2000/svg"
 width="200.000000pt" height="200.000000pt" viewBox="0 0 200.000000 200.000000"
 preserveAspectRatio="xMidYMid meet">

<g transform="translate(0.000000,200.000000) scale(0.100000,-0.100000)"
fill="#000000" stroke="none">
<path d="M277 1823 c-13 -12 -7 -20 56 -68 34 -27 66 -52 71 -56 5 -4 -28 -54
-73 -110 l-81 -102 0 -173 0 -174 -50 0 c-41 0 -56 -5 -82 -29 l-33 -29 0
-177 0 -177 33 -29 c32 -29 33 -29 162 -29 l130 0 0 -230 0 -230 -64 0 c-46 0
-65 -4 -69 -14 -3 -8 -3 -17 0 -20 4 -3 73 -6 155 -6 141 0 148 1 148 20 0 18
-7 20 -65 20 l-65 0 0 230 0 230 45 0 c45 0 45 0 45 -35 0 -43 34 -147 63
-195 12 -19 41 -56 66 -83 l44 -47 -32 -59 c-36 -67 -38 -81 -13 -81 10 0 29
22 50 60 l32 59 33 -19 c117 -68 334 -65 444 6 21 13 24 12 55 -46 21 -38 40
-60 51 -60 24 0 22 14 -14 81 l-32 59 41 44 c77 83 132 201 132 281 0 35 0 35
45 35 l45 0 0 -230 0 -230 -64 0 c-46 0 -65 -4 -69 -14 -3 -8 -3 -17 0 -20 8
-8 298 -8 306 0 3 3 3 12 0 20 -4 10 -23 14 -69 14 l-64 0 0 230 0 230 129 0
c114 0 131 2 154 21 40 31 49 77 45 242 l-3 149 -33 29 c-26 24 -41 29 -82 29
l-50 0 0 174 0 173 -81 102 c-45 56 -78 106 -73 110 5 4 37 29 72 56 64 50 72
62 47 71 -9 4 -38 -11 -71 -37 -86 -68 -80 -66 -104 -37 -12 16 -27 25 -35 21
-19 -7 -19 -27 0 -43 26 -21 17 -37 -50 -90 -36 -28 -65 -56 -65 -61 0 -27 35
-16 93 30 36 28 67 51 70 51 4 0 40 -43 82 -95 l75 -95 -2 -163 -3 -162 -212
-5 -212 -5 -28 -27 c-18 -17 -33 -24 -39 -19 -24 24 -137 51 -214 51 -77 0
-190 -27 -214 -51 -6 -5 -21 2 -39 19 l-28 27 -212 5 -212 5 -3 162 -2 163 75
95 c42 52 78 95 82 95 3 0 34 -23 70 -51 58 -46 93 -57 93 -30 0 5 -29 33 -65
61 -67 53 -76 69 -50 90 19 16 19 36 0 43 -8 4 -22 -4 -34 -18 -10 -14 -22
-25 -26 -25 -3 0 -34 23 -68 50 -60 49 -77 57 -90 43z m876 -811 c80 -37 142
-100 181 -182 27 -57 31 -76 31 -150 0 -74 -4 -93 -31 -150 -39 -83 -101 -145
-184 -184 -57 -27 -76 -31 -150 -31 -75 0 -93 4 -152 32 -84 39 -142 97 -181
181 -28 59 -32 77 -32 152 0 75 4 93 32 152 49 105 140 180 250 208 66 16 168
4 236 -28z"/>
<path d="M927 1000 c-98 -25 -182 -95 -225 -189 -21 -44 -26 -71 -27 -131 0
-66 5 -85 33 -142 18 -37 49 -81 69 -99 133 -117 330 -112 453 11 127 127 127
333 0 460 -76 76 -205 114 -303 90z"/>
</g>
</svg>
