<?xml version="1.0" standalone="no"?>
<!DOCTYPE svg PUBLIC "-//W3C//DTD SVG 20010904//EN"
 "http://www.w3.org/TR/2001/REC-SVG-20010904/DTD/svg10.dtd">
<svg version="1.0" xmlns="http://www.w3.org/2000/svg"
 width="200.000000pt" height="200.000000pt" viewBox="0 0 200.000000 200.000000"
 preserveAspectRatio="xMidYMid meet">

<g transform="translate(0.000000,200.000000) scale(0.100000,-0.100000)"
fill="#000000" stroke="none">
<path d="M165 1828 c-3 -7 -4 -384 -3 -838 l3 -825 835 0 835 0 0 835 0 835
-833 3 c-661 2 -834 0 -837 -10z m1293 -120 c16 -16 16 -150 0 -166 -17 -17
-1149 -17 -1166 0 -16 16 -16 150 0 166 17 17 1149 17 1166 0z m-940 -246 c9
-6 12 -38 10 -123 l-3 -114 -114 -3 c-85 -2 -117 1 -123 10 -13 21 -10 212 4
226 14 14 205 17 226 4z m317 -117 l0 -120 -109 -3 c-71 -2 -113 1 -122 9 -19
15 -20 209 -2 227 9 9 46 12 123 10 l110 -3 0 -120z m313 113 c18 -18 16 -212
-2 -227 -9 -8 -51 -11 -122 -9 l-109 3 -3 109 c-1 61 0 116 2 123 7 18 216 19
234 1z m310 0 c14 -14 17 -205 4 -226 -6 -9 -38 -12 -123 -10 l-114 3 -3 114
c-2 85 1 117 10 123 21 13 212 10 226 -4z m211 -33 c53 -27 64 -95 22 -146
-15 -19 -29 -24 -66 -24 -37 0 -51 5 -66 24 -41 50 -32 118 20 146 34 18 55
18 90 0z m-1150 -279 c8 -9 11 -51 9 -122 l-3 -109 -120 0 -120 0 -3 109 c-2
71 1 113 9 122 8 10 38 14 114 14 76 0 106 -4 114 -14z m309 6 c9 -6 12 -38
10 -123 l-3 -114 -114 -3 c-85 -2 -117 1 -123 10 -4 7 -8 57 -8 110 0 75 4
100 16 112 12 12 37 16 112 16 53 0 103 -4 110 -8z m316 -8 c12 -12 16 -37 16
-112 0 -53 -4 -103 -8 -110 -6 -9 -38 -12 -123 -10 l-114 3 -3 114 c-2 85 1
117 10 123 7 4 57 8 110 8 75 0 100 -4 112 -16z m315 2 c8 -9 11 -51 9 -122
l-3 -109 -120 0 -120 0 -3 109 c-2 71 1 113 9 122 8 10 38 14 114 14 76 0 106
-4 114 -14z m236 -58 c22 -26 26 -39 21 -67 -17 -106 -165 -106 -182 0 -5 28
-1 41 21 67 22 27 34 32 70 32 36 0 48 -5 70 -32z m-1167 -362 c2 -71 -1 -113
-9 -122 -15 -18 -209 -20 -227 -2 -13 13 -17 219 -5 232 4 3 59 5 122 4 l116
-3 3 -109z m310 -5 c2 -85 -1 -117 -10 -123 -7 -4 -57 -8 -110 -8 -126 0 -128
2 -128 125 0 51 3 101 6 109 5 14 23 16 123 14 l116 -3 3 -114z m316 103 c3
-9 6 -58 6 -109 0 -72 -4 -97 -16 -109 -12 -12 -37 -16 -109 -16 -51 0 -100 3
-109 6 -13 5 -16 25 -16 118 0 62 3 116 7 119 3 4 57 7 119 7 93 0 113 -3 118
-16z m314 -98 c2 -71 -1 -113 -9 -122 -15 -18 -209 -20 -227 -2 -13 13 -17
219 -5 232 4 3 59 5 122 4 l116 -3 3 -109z m217 62 c15 -14 28 -38 31 -59 5
-28 1 -41 -21 -67 -39 -46 -101 -46 -140 0 -22 26 -26 39 -21 67 7 46 46 81
91 81 21 0 44 -9 60 -22z m-1157 -377 c2 -85 -1 -117 -10 -123 -21 -13 -212
-10 -226 4 -13 13 -17 192 -6 222 5 14 23 16 123 14 l116 -3 3 -114z m307 -6
l0 -120 -109 -3 c-71 -2 -113 1 -122 9 -19 15 -20 209 -2 227 9 9 46 12 123
10 l110 -3 0 -120z m313 113 c18 -18 16 -212 -2 -227 -9 -8 -51 -11 -122 -9
l-109 3 -3 109 c-1 61 0 116 2 123 7 18 216 19 234 1z m316 -4 c11 -30 7 -209
-6 -222 -13 -13 -192 -17 -222 -6 -13 5 -16 25 -16 118 0 62 3 116 7 119 3 4
57 7 119 7 93 0 113 -3 118 -16z m200 -24 c33 -12 61 -69 52 -104 -21 -84
-133 -99 -172 -23 -42 81 33 160 120 127z"/>
<path d="M344 1646 c-3 -8 -4 -23 -2 -33 3 -17 30 -18 533 -18 l530 0 0 30 0
30 -528 3 c-453 2 -528 0 -533 -12z"/>
<path d="M347 1403 c-4 -3 -7 -33 -7 -65 l0 -58 65 0 65 0 0 65 0 65 -58 0
c-32 0 -62 -3 -65 -7z"/>
<path d="M660 1345 l0 -65 60 0 60 0 0 65 0 65 -60 0 -60 0 0 -65z"/>
<path d="M970 1345 l0 -65 60 0 60 0 0 65 0 65 -60 0 -60 0 0 -65z"/>
<path d="M1280 1345 l0 -65 65 0 66 0 -3 63 -3 62 -62 3 -63 3 0 -66z"/>
<path d="M1597 1358 c-6 -18 11 -48 28 -48 17 0 34 30 28 48 -3 6 -15 12 -28
12 -13 0 -25 -6 -28 -12z"/>
<path d="M340 1030 l0 -60 65 0 65 0 0 60 0 60 -65 0 -65 0 0 -60z"/>
<path d="M660 1030 l0 -60 60 0 60 0 0 60 0 60 -60 0 -60 0 0 -60z"/>
<path d="M970 1030 l0 -60 60 0 60 0 0 60 0 60 -60 0 -60 0 0 -60z"/>
<path d="M1280 1030 l0 -60 65 0 65 0 0 60 0 60 -65 0 -65 0 0 -60z"/>
<path d="M1596 1044 c-7 -19 10 -44 29 -44 19 0 36 25 29 44 -3 9 -16 16 -29
16 -13 0 -26 -7 -29 -16z"/>
<path d="M340 720 l0 -60 65 0 65 0 0 60 0 60 -65 0 -65 0 0 -60z"/>
<path d="M660 720 l0 -60 60 0 60 0 0 60 0 60 -60 0 -60 0 0 -60z"/>
<path d="M970 720 l0 -60 60 0 60 0 0 60 0 60 -60 0 -60 0 0 -60z"/>
<path d="M1280 720 l0 -60 65 0 65 0 0 60 0 60 -65 0 -65 0 0 -60z"/>
<path d="M1601 736 c-15 -18 -4 -46 19 -46 28 0 45 27 30 45 -16 19 -34 19
-49 1z"/>
<path d="M342 408 l3 -63 63 -3 62 -3 0 66 0 65 -65 0 -66 0 3 -62z"/>
<path d="M660 405 l0 -65 60 0 60 0 0 65 0 65 -60 0 -60 0 0 -65z"/>
<path d="M970 405 l0 -65 60 0 60 0 0 65 0 65 -60 0 -60 0 0 -65z"/>
<path d="M1280 405 l0 -66 63 3 62 3 3 63 3 62 -66 0 -65 0 0 -65z"/>
<path d="M1602 423 c-13 -26 -4 -43 23 -43 13 0 25 6 28 13 6 17 -11 47 -28
47 -8 0 -18 -8 -23 -17z"/>
</g>
</svg>
