<?xml version="1.0" standalone="no"?>
<!DOCTYPE svg PUBLIC "-//W3C//DTD SVG 20010904//EN"
 "http://www.w3.org/TR/2001/REC-SVG-20010904/DTD/svg10.dtd">
<svg version="1.0" xmlns="http://www.w3.org/2000/svg"
 width="200.000000pt" height="200.000000pt" viewBox="0 0 200.000000 200.000000"
 preserveAspectRatio="xMidYMid meet">

<g transform="translate(0.000000,200.000000) scale(0.100000,-0.100000)"
fill="#000000" stroke="none">
<path d="M234 1982 c-67 -23 -129 -70 -171 -129 -65 -92 -64 -73 -61 -874 l3
-724 28 -56 c32 -67 109 -142 175 -172 40 -18 70 -22 210 -25 l162 -4 0 461 0
460 -29 16 c-63 32 -61 10 -61 562 l0 503 -102 0 c-72 -1 -119 -6 -154 -18z"/>
<path d="M760 1497 c0 -552 2 -530 -61 -562 l-29 -16 0 -459 0 -460 330 0 330
0 0 460 0 459 -29 16 c-63 32 -61 10 -61 562 l0 503 -240 0 -240 0 0 -503z"/>
<path d="M1510 1498 c0 -559 3 -535 -66 -564 l-34 -14 0 -461 0 -461 168 4
c144 3 173 6 214 25 66 30 143 105 175 172 l28 56 0 745 0 745 -28 56 c-32 67
-109 142 -175 172 -37 17 -72 22 -164 25 l-118 4 0 -504z"/>
</g>
</svg>
