<?xml version="1.0" standalone="no"?>
<!DOCTYPE svg PUBLIC "-//W3C//DTD SVG 20010904//EN"
 "http://www.w3.org/TR/2001/REC-SVG-20010904/DTD/svg10.dtd">
<svg version="1.0" xmlns="http://www.w3.org/2000/svg"
 width="200.000000pt" height="200.000000pt" viewBox="0 0 200.000000 200.000000"
 preserveAspectRatio="xMidYMid meet">

<g transform="translate(0.000000,200.000000) scale(0.100000,-0.100000)"
fill="#000000" stroke="none">
<path d="M280 1000 l0 -680 720 0 720 0 0 680 0 680 -720 0 -720 0 0 -680z
m350 285 l0 -245 -40 0 -40 0 0 245 0 245 40 0 40 0 0 -245z m278 188 l3 -53
-45 0 -46 0 0 48 c0 27 3 52 7 56 4 4 23 6 43 4 35 -3 35 -3 38 -55z m270
-131 l2 -183 -42 3 -43 3 -3 170 c-1 93 0 175 3 183 3 9 18 12 42 10 l38 -3 3
-183z m272 -122 l0 -310 -40 0 -40 0 0 310 0 310 40 0 40 0 0 -310z m-480 130
l0 -61 -107 3 -108 3 -3 44 c-5 71 -5 71 113 71 l105 0 0 -60z m-62 -472 l-3
-403 -42 -3 -43 -3 0 405 0 406 45 0 45 0 -2 -402z m337 212 l0 -55 -105 0
-105 0 -3 58 -3 58 108 -3 108 -3 0 -55z m-547 -117 l-3 -58 -105 0 -105 0 -3
58 -3 57 111 0 111 0 -3 -57z m480 -225 l-3 -273 -40 0 -40 0 -3 273 -2 272
45 0 45 0 -2 -272z m-548 -63 l0 -215 -40 0 -40 0 0 215 0 215 40 0 40 0 0
-215z m888 158 l-3 -58 -105 0 -105 0 -3 58 -3 57 111 0 111 0 -3 -57z m-68
-223 l0 -150 -40 0 -40 0 0 150 0 150 40 0 40 0 0 -150z"/>
</g>
</svg>
